<mxfile host="app.diagrams.net" agent="Mozilla/5.0 (Windows NT 10.0; Win64; x64) AppleWebKit/537.36 (KHTML, like Gecko) Chrome/137.0.0.0 Safari/537.36" version="27.1.4">
  <diagram name="PÃ¡gina-1" id="oovZhrzgwzb8RIyPMst8">
    <mxGraphModel dx="1362" dy="825" grid="1" gridSize="10" guides="1" tooltips="1" connect="1" arrows="1" fold="1" page="1" pageScale="1" pageWidth="827" pageHeight="1169" math="0" shadow="0">
      <root>
        <mxCell id="0" />
        <mxCell id="1" parent="0" />
        <mxCell id="wzmIhyqLUfRe8WcLsJcf-3" value="" style="edgeStyle=orthogonalEdgeStyle;rounded=0;orthogonalLoop=1;jettySize=auto;html=1;" edge="1" parent="1" source="wzmIhyqLUfRe8WcLsJcf-1" target="wzmIhyqLUfRe8WcLsJcf-2">
          <mxGeometry relative="1" as="geometry" />
        </mxCell>
        <mxCell id="wzmIhyqLUfRe8WcLsJcf-1" value="INICIO" style="ellipse;whiteSpace=wrap;html=1;fillColor=#dae8fc;strokeColor=#6c8ebf;" vertex="1" parent="1">
          <mxGeometry x="100" y="50" width="120" height="80" as="geometry" />
        </mxCell>
        <mxCell id="wzmIhyqLUfRe8WcLsJcf-5" value="" style="edgeStyle=orthogonalEdgeStyle;rounded=0;orthogonalLoop=1;jettySize=auto;html=1;" edge="1" parent="1" source="wzmIhyqLUfRe8WcLsJcf-2" target="wzmIhyqLUfRe8WcLsJcf-4">
          <mxGeometry relative="1" as="geometry" />
        </mxCell>
        <mxCell id="wzmIhyqLUfRe8WcLsJcf-2" value="n2 = int(input(&quot;ingrese un numero&quot;))" style="shape=parallelogram;perimeter=parallelogramPerimeter;whiteSpace=wrap;html=1;fixedSize=1;fillColor=#fff2cc;strokeColor=#d6b656;" vertex="1" parent="1">
          <mxGeometry x="75" y="220" width="170" height="60" as="geometry" />
        </mxCell>
        <mxCell id="wzmIhyqLUfRe8WcLsJcf-7" value="" style="edgeStyle=orthogonalEdgeStyle;rounded=0;orthogonalLoop=1;jettySize=auto;html=1;" edge="1" parent="1" source="wzmIhyqLUfRe8WcLsJcf-4" target="wzmIhyqLUfRe8WcLsJcf-6">
          <mxGeometry relative="1" as="geometry" />
        </mxCell>
        <mxCell id="wzmIhyqLUfRe8WcLsJcf-4" value="n3 = int(input(&quot;ingrese el segundo numero&quot;))" style="shape=parallelogram;perimeter=parallelogramPerimeter;whiteSpace=wrap;html=1;fixedSize=1;fillColor=#fff2cc;strokeColor=#d6b656;" vertex="1" parent="1">
          <mxGeometry x="70" y="360" width="180" height="60" as="geometry" />
        </mxCell>
        <mxCell id="wzmIhyqLUfRe8WcLsJcf-9" value="" style="edgeStyle=orthogonalEdgeStyle;rounded=0;orthogonalLoop=1;jettySize=auto;html=1;" edge="1" parent="1" source="wzmIhyqLUfRe8WcLsJcf-6" target="wzmIhyqLUfRe8WcLsJcf-8">
          <mxGeometry relative="1" as="geometry" />
        </mxCell>
        <mxCell id="wzmIhyqLUfRe8WcLsJcf-11" value="" style="edgeStyle=orthogonalEdgeStyle;rounded=0;orthogonalLoop=1;jettySize=auto;html=1;" edge="1" parent="1" source="wzmIhyqLUfRe8WcLsJcf-6" target="wzmIhyqLUfRe8WcLsJcf-10">
          <mxGeometry relative="1" as="geometry" />
        </mxCell>
        <mxCell id="wzmIhyqLUfRe8WcLsJcf-6" value="n2 &amp;gt; n3" style="rhombus;whiteSpace=wrap;html=1;fillColor=#f8cecc;strokeColor=#b85450;" vertex="1" parent="1">
          <mxGeometry x="120" y="490" width="80" height="80" as="geometry" />
        </mxCell>
        <mxCell id="wzmIhyqLUfRe8WcLsJcf-8" value="print(&quot;Es mayor &quot;, n2)" style="shape=document;whiteSpace=wrap;html=1;boundedLbl=1;fillColor=#f5f5f5;fontColor=#333333;strokeColor=#666666;" vertex="1" parent="1">
          <mxGeometry x="250" y="585" width="120" height="80" as="geometry" />
        </mxCell>
        <mxCell id="wzmIhyqLUfRe8WcLsJcf-13" value="" style="edgeStyle=orthogonalEdgeStyle;rounded=0;orthogonalLoop=1;jettySize=auto;html=1;" edge="1" parent="1" source="wzmIhyqLUfRe8WcLsJcf-10" target="wzmIhyqLUfRe8WcLsJcf-12">
          <mxGeometry relative="1" as="geometry" />
        </mxCell>
        <mxCell id="wzmIhyqLUfRe8WcLsJcf-15" value="" style="edgeStyle=orthogonalEdgeStyle;rounded=0;orthogonalLoop=1;jettySize=auto;html=1;" edge="1" parent="1" source="wzmIhyqLUfRe8WcLsJcf-10" target="wzmIhyqLUfRe8WcLsJcf-14">
          <mxGeometry relative="1" as="geometry" />
        </mxCell>
        <mxCell id="wzmIhyqLUfRe8WcLsJcf-10" value="n3 &amp;gt; n2" style="rhombus;whiteSpace=wrap;html=1;fillColor=#f8cecc;strokeColor=#b85450;" vertex="1" parent="1">
          <mxGeometry y="590" width="80" height="80" as="geometry" />
        </mxCell>
        <mxCell id="wzmIhyqLUfRe8WcLsJcf-12" value="print(&quot;Es menor &quot;,n3)" style="shape=document;whiteSpace=wrap;html=1;boundedLbl=1;fillColor=#f5f5f5;fontColor=#333333;strokeColor=#666666;" vertex="1" parent="1">
          <mxGeometry x="110" y="700" width="120" height="80" as="geometry" />
        </mxCell>
        <mxCell id="wzmIhyqLUfRe8WcLsJcf-14" value="print(&quot;ERROR&quot;)" style="shape=document;whiteSpace=wrap;html=1;boundedLbl=1;fillColor=#f5f5f5;fontColor=#333333;strokeColor=#666666;" vertex="1" parent="1">
          <mxGeometry x="-140" y="690" width="120" height="80" as="geometry" />
        </mxCell>
        <mxCell id="wzmIhyqLUfRe8WcLsJcf-16" value="" style="endArrow=classic;html=1;rounded=0;exitX=0.502;exitY=0.868;exitDx=0;exitDy=0;exitPerimeter=0;" edge="1" parent="1" source="wzmIhyqLUfRe8WcLsJcf-8">
          <mxGeometry width="50" height="50" relative="1" as="geometry">
            <mxPoint x="170" y="670" as="sourcePoint" />
            <mxPoint x="310" y="790" as="targetPoint" />
          </mxGeometry>
        </mxCell>
        <mxCell id="wzmIhyqLUfRe8WcLsJcf-17" value="" style="endArrow=classic;html=1;rounded=0;" edge="1" parent="1">
          <mxGeometry width="50" height="50" relative="1" as="geometry">
            <mxPoint x="170" y="770" as="sourcePoint" />
            <mxPoint x="170" y="830" as="targetPoint" />
          </mxGeometry>
        </mxCell>
        <mxCell id="wzmIhyqLUfRe8WcLsJcf-18" value="" style="endArrow=classic;html=1;rounded=0;exitX=0.497;exitY=0.854;exitDx=0;exitDy=0;exitPerimeter=0;" edge="1" parent="1" source="wzmIhyqLUfRe8WcLsJcf-14">
          <mxGeometry width="50" height="50" relative="1" as="geometry">
            <mxPoint x="-70" y="780" as="sourcePoint" />
            <mxPoint x="-80" y="840" as="targetPoint" />
          </mxGeometry>
        </mxCell>
        <mxCell id="wzmIhyqLUfRe8WcLsJcf-19" value="FIN" style="ellipse;whiteSpace=wrap;html=1;fillColor=#dae8fc;strokeColor=#6c8ebf;" vertex="1" parent="1">
          <mxGeometry x="250" y="790" width="120" height="80" as="geometry" />
        </mxCell>
        <mxCell id="wzmIhyqLUfRe8WcLsJcf-20" value="" style="endArrow=classic;html=1;rounded=0;entryX=0;entryY=0.5;entryDx=0;entryDy=0;" edge="1" parent="1" target="wzmIhyqLUfRe8WcLsJcf-19">
          <mxGeometry width="50" height="50" relative="1" as="geometry">
            <mxPoint x="-90" y="840" as="sourcePoint" />
            <mxPoint x="100" y="530" as="targetPoint" />
            <Array as="points" />
          </mxGeometry>
        </mxCell>
      </root>
    </mxGraphModel>
  </diagram>
</mxfile>
